<svg xmlns="http://www.w3.org/2000/svg" viewBox="0 0 512 512" xml:space="preserve"><path style="fill:#eab528" d="M376.309 88.836h107.385v49.406H376.309z"/><path style="fill:#962229" d="M382.561 23.818h107.385v49.406H382.561z"/><path style="fill:#188a96" d="M370.057 153.854h107.386v49.405H370.057z"/><g style="opacity:.1"><path style="fill:#060001" d="M358.043 88.836h107.386v49.406H358.043z"/></g><g style="opacity:.1"><path style="fill:#060001" d="M358.043 23.818h107.386v49.406H358.043z"/></g><g style="opacity:.1"><path style="fill:#060001" d="M358.043 153.854h107.386v49.405H358.043z"/></g><path style="fill:#edcba0" d="M47.456 0h399.057v511.972H47.456z"/><path style="fill:#884860" d="M5.911 0h138.333v511.972H5.911z"/><path style="fill:#eaa277" d="M0 0h11.823v511.972H0z"/><path style="fill:#fff" d="M47.444 80.523 87.69 54.556H47.444V41.753h65.57v11.42l-40.156 25.97h40.156v12.8h-65.57zm24.035 60.409q-6.538-.001-10.912-1.057-4.375-1.06-7.783-4.376c-1.592-1.533-2.978-3.514-4.145-5.94q-1.75-3.639-1.75-8.977 0-5.344 1.75-8.936c1.167-2.392 2.553-4.358 4.145-5.892 2.334-2.148 4.942-3.593 7.831-4.327 2.882-.738 6.506-1.105 10.864-1.105q6.539-.001 10.823 1.105c2.855.734 5.442 2.179 7.784 4.327 1.592 1.534 2.971 3.501 4.138 5.892q1.75 3.592 1.75 8.936 0 5.338-1.75 8.977t-4.138 5.94c-2.341 2.148-4.928 3.593-7.784 4.328q-4.284 1.106-10.823 1.105m0-11.969c2.457 0 4.695-.155 6.726-.464q3.038-.46 4.88-2.299 2.112-2.122 2.113-5.617c0-2.276-.706-4.115-2.113-5.528q-1.843-1.841-4.88-2.303c-2.031-.305-4.269-.46-6.726-.46q-3.779.001-6.815.46-3.038.462-4.88 2.303c-1.413 1.413-2.12 3.253-2.12 5.528q0 3.495 2.12 5.617 1.843 1.84 4.88 2.299 3.036.464 6.815.464m-24.035 34.439q0-3.68 1.194-6.307 1.203-2.624 3.137-4.327a12.1 12.1 0 0 1 4.371-2.488 16.3 16.3 0 0 1 5.017-.783h23.761v-5.065h9.114v5.065h14.186v11.973H94.039v8.473h-9.114v-8.473h-23.02q-4.332 0-4.33 4.142v4.331h-10.13zm20.26 22.838c-3.13 0-5.697.888-7.687 2.673q-2.997 2.666-2.999 7.828 0 3.959 1.153 6.259 1.152 2.302 3.363 4.605l-7.09 7.275a40 40 0 0 1-3.274-3.683 19.4 19.4 0 0 1-2.388-4.008 20 20 0 0 1-1.427-4.742q-.465-2.578-.467-5.799 0-4.237 1.112-8.242a17.1 17.1 0 0 1 3.912-7.09c1.874-2.059 4.385-3.716 7.549-4.976 3.164-1.256 7.166-1.888 12.018-1.888q5.89.001 10.452 1.52 4.56 1.519 7.686 4.283a18 18 0 0 1 4.743 6.585c1.078 2.546 1.613 5.388 1.613 8.517q-.001 4.972-1.701 8.888c-1.14 2.608-2.732 4.801-4.791 6.582s-4.509 3.133-7.364 4.053q-4.282 1.383-9.348 1.382h-5.065zm8.195 18.235a28 28 0 0 0 2.718-.278c.769-.123 1.578-.398 2.444-.827q2.11-1.015 3.541-2.992 1.429-1.983 1.427-5.021.001-3.038-1.427-5.02-1.43-1.977-3.541-2.993c-.865-.429-1.675-.707-2.444-.827a28 28 0 0 0-2.718-.278zm5.161 58.292c-.68 1.29-1.263 2.269-1.751 2.948a18 18 0 0 1-1.75 2.024q-2.306 2.117-5.065 3.085-2.767.968-6.266.968-4.323 0-7.783-1.383-3.45-1.38-5.889-4.004c-1.626-1.75-2.889-3.867-3.775-6.355q-1.338-3.727-1.338-8.335v-27.443h65.57v26.337q-.001 4.607-1.29 8.384c-.865 2.515-2.073 4.65-3.638 6.4q-2.347 2.624-5.662 4.049-3.323 1.43-7.46 1.428-9.395-.001-13.903-8.103m-22.195-12.34q0 3.957 2.162 6.263 2.163 2.3 5.944 2.302 3.768-.001 5.889-2.302 2.12-2.306 2.12-6.263v-13.352H58.865zm27.624-.83c0 2.639.68 4.712 2.025 6.218 1.352 1.503 3.191 2.255 5.525 2.255 2.333 0 4.18-.752 5.532-2.255 1.345-1.507 2.024-3.579 2.024-6.218v-12.522H86.489zm-15.01 68.975q-6.538 0-10.912-1.057-4.375-1.06-7.783-4.376c-1.592-1.534-2.978-3.514-4.145-5.94q-1.75-3.639-1.75-8.977 0-5.343 1.75-8.935c1.167-2.392 2.553-4.359 4.145-5.892 2.334-2.148 4.942-3.593 7.831-4.327 2.882-.738 6.506-1.105 10.864-1.105q6.539 0 10.823 1.105c2.855.734 5.442 2.179 7.784 4.327 1.592 1.533 2.971 3.5 4.138 5.892q1.75 3.593 1.75 8.935 0 5.338-1.75 8.977t-4.138 5.94c-2.341 2.148-4.928 3.593-7.784 4.327q-4.284 1.106-10.823 1.106m0-11.97c2.457 0 4.695-.154 6.726-.463 2.025-.305 3.652-1.074 4.88-2.299q2.112-2.122 2.113-5.618c0-2.275-.706-4.114-2.113-5.528q-1.843-1.842-4.88-2.302c-2.031-.306-4.269-.46-6.726-.46q-3.779 0-6.815.46-3.038.462-4.88 2.302c-1.413 1.414-2.12 3.253-2.12 5.528q0 3.496 2.12 5.618c1.229 1.225 2.855 1.994 4.88 2.299q3.036.463 6.815.463m0 58.014q-6.538-.001-10.912-1.057-4.375-1.06-7.783-4.375c-1.592-1.534-2.978-3.514-4.145-5.941q-1.75-3.64-1.75-8.977 0-5.343 1.75-8.936c1.167-2.391 2.553-4.358 4.145-5.892 2.334-2.148 4.942-3.593 7.831-4.327 2.882-.738 6.506-1.105 10.864-1.105q6.539-.001 10.823 1.105c2.855.734 5.442 2.179 7.784 4.327 1.592 1.534 2.971 3.501 4.138 5.892q1.75 3.593 1.75 8.936 0 5.337-1.75 8.977t-4.138 5.941c-2.341 2.148-4.928 3.592-7.784 4.327q-4.284 1.107-10.823 1.105m0-11.969c2.457 0 4.695-.155 6.726-.463 2.025-.306 3.652-1.075 4.88-2.299q2.112-2.122 2.113-5.617c0-2.275-.706-4.114-2.113-5.528-1.229-1.229-2.855-1.994-4.88-2.303-2.031-.305-4.269-.46-6.726-.46q-3.779.001-6.815.46-3.038.462-4.88 2.303c-1.413 1.414-2.12 3.253-2.12 5.528q0 3.495 2.12 5.617 1.843 1.84 4.88 2.299 3.036.463 6.815.463m-24.035 48.255 19.985-11.788-5.71-5.065H47.444v-11.973h65.57v11.973H75.81l19.615 15.929v14.461l-19.34-17.13-28.64 18.417z"/><path style="fill:#fff" d="M47.444 80.523 87.69 54.556H47.444V41.753h65.57v11.42l-40.156 25.97h40.156v12.8h-65.57zm24.035 60.409q-6.538-.001-10.912-1.057-4.375-1.06-7.783-4.376c-1.592-1.533-2.978-3.514-4.145-5.94q-1.75-3.639-1.75-8.977 0-5.344 1.75-8.936c1.167-2.392 2.553-4.358 4.145-5.892 2.334-2.148 4.942-3.593 7.831-4.327 2.882-.738 6.506-1.105 10.864-1.105q6.539-.001 10.823 1.105c2.855.734 5.442 2.179 7.784 4.327 1.592 1.534 2.971 3.501 4.138 5.892q1.75 3.592 1.75 8.936 0 5.338-1.75 8.977t-4.138 5.94c-2.341 2.148-4.928 3.593-7.784 4.328q-4.284 1.106-10.823 1.105m0-11.969c2.457 0 4.695-.155 6.726-.464q3.038-.46 4.88-2.299 2.112-2.122 2.113-5.617c0-2.276-.706-4.115-2.113-5.528q-1.843-1.841-4.88-2.303c-2.031-.305-4.269-.46-6.726-.46q-3.779.001-6.815.46-3.038.462-4.88 2.303c-1.413 1.413-2.12 3.253-2.12 5.528q0 3.495 2.12 5.617 1.843 1.84 4.88 2.299 3.036.464 6.815.464m-24.035 34.439q0-3.68 1.194-6.307 1.203-2.624 3.137-4.327a12.1 12.1 0 0 1 4.371-2.488 16.3 16.3 0 0 1 5.017-.783h23.761v-5.065h9.114v5.065h14.186v11.973H94.039v8.473h-9.114v-8.473h-23.02q-4.332 0-4.33 4.142v4.331h-10.13zm20.26 22.838c-3.13 0-5.697.888-7.687 2.673q-2.997 2.666-2.999 7.828 0 3.959 1.153 6.259 1.152 2.302 3.363 4.605l-7.09 7.275a40 40 0 0 1-3.274-3.683 19.4 19.4 0 0 1-2.388-4.008 20 20 0 0 1-1.427-4.742q-.465-2.578-.467-5.799 0-4.237 1.112-8.242a17.1 17.1 0 0 1 3.912-7.09c1.874-2.059 4.385-3.716 7.549-4.976 3.164-1.256 7.166-1.888 12.018-1.888q5.89.001 10.452 1.52 4.56 1.519 7.686 4.283a18 18 0 0 1 4.743 6.585c1.078 2.546 1.613 5.388 1.613 8.517q-.001 4.972-1.701 8.888c-1.14 2.608-2.732 4.801-4.791 6.582s-4.509 3.133-7.364 4.053q-4.282 1.383-9.348 1.382h-5.065zm8.195 18.235a28 28 0 0 0 2.718-.278c.769-.123 1.578-.398 2.444-.827q2.11-1.015 3.541-2.992 1.429-1.983 1.427-5.021.001-3.038-1.427-5.02-1.43-1.977-3.541-2.993c-.865-.429-1.675-.707-2.444-.827a28 28 0 0 0-2.718-.278zm5.161 58.292c-.68 1.29-1.263 2.269-1.751 2.948a18 18 0 0 1-1.75 2.024q-2.306 2.117-5.065 3.085-2.767.968-6.266.968-4.323 0-7.783-1.383-3.45-1.38-5.889-4.004c-1.626-1.75-2.889-3.867-3.775-6.355q-1.338-3.727-1.338-8.335v-27.443h65.57v26.337q-.001 4.607-1.29 8.384c-.865 2.515-2.073 4.65-3.638 6.4q-2.347 2.624-5.662 4.049-3.323 1.43-7.46 1.428-9.395-.001-13.903-8.103m-22.195-12.34q0 3.957 2.162 6.263 2.163 2.3 5.944 2.302 3.768-.001 5.889-2.302 2.12-2.306 2.12-6.263v-13.352H58.865zm27.624-.83c0 2.639.68 4.712 2.025 6.218 1.352 1.503 3.191 2.255 5.525 2.255 2.333 0 4.18-.752 5.532-2.255 1.345-1.507 2.024-3.579 2.024-6.218v-12.522H86.489zm-15.01 68.975q-6.538 0-10.912-1.057-4.375-1.06-7.783-4.376c-1.592-1.534-2.978-3.514-4.145-5.94q-1.75-3.639-1.75-8.977 0-5.343 1.75-8.935c1.167-2.392 2.553-4.359 4.145-5.892 2.334-2.148 4.942-3.593 7.831-4.327 2.882-.738 6.506-1.105 10.864-1.105q6.539 0 10.823 1.105c2.855.734 5.442 2.179 7.784 4.327 1.592 1.533 2.971 3.5 4.138 5.892q1.75 3.593 1.75 8.935 0 5.338-1.75 8.977t-4.138 5.94c-2.341 2.148-4.928 3.593-7.784 4.327q-4.284 1.106-10.823 1.106m0-11.97c2.457 0 4.695-.154 6.726-.463 2.025-.305 3.652-1.074 4.88-2.299q2.112-2.122 2.113-5.618c0-2.275-.706-4.114-2.113-5.528q-1.843-1.842-4.88-2.302c-2.031-.306-4.269-.46-6.726-.46q-3.779 0-6.815.46-3.038.462-4.88 2.302c-1.413 1.414-2.12 3.253-2.12 5.528q0 3.496 2.12 5.618c1.229 1.225 2.855 1.994 4.88 2.299q3.036.463 6.815.463m0 58.014q-6.538-.001-10.912-1.057-4.375-1.06-7.783-4.375c-1.592-1.534-2.978-3.514-4.145-5.941q-1.75-3.64-1.75-8.977 0-5.343 1.75-8.936c1.167-2.391 2.553-4.358 4.145-5.892 2.334-2.148 4.942-3.593 7.831-4.327 2.882-.738 6.506-1.105 10.864-1.105q6.539-.001 10.823 1.105c2.855.734 5.442 2.179 7.784 4.327 1.592 1.534 2.971 3.501 4.138 5.892q1.75 3.593 1.75 8.936 0 5.337-1.75 8.977t-4.138 5.941c-2.341 2.148-4.928 3.592-7.784 4.327q-4.284 1.107-10.823 1.105m0-11.969c2.457 0 4.695-.155 6.726-.463 2.025-.306 3.652-1.075 4.88-2.299q2.112-2.122 2.113-5.617c0-2.275-.706-4.114-2.113-5.528-1.229-1.229-2.855-1.994-4.88-2.303-2.031-.305-4.269-.46-6.726-.46q-3.779.001-6.815.46-3.038.462-4.88 2.303c-1.413 1.414-2.12 3.253-2.12 5.528q0 3.495 2.12 5.617 1.843 1.84 4.88 2.299 3.036.463 6.815.463m-24.035 48.255 19.985-11.788-5.71-5.065H47.444v-11.973h65.57v11.973H75.81l19.615 15.929v14.461l-19.34-17.13-28.64 18.417z"/><path style="fill:#565657" d="M144.244 248.204h168.255v23.254H144.244zm41.661 84.125h225.793v3.283H185.905zm0 61.556h225.793v3.283H185.905zm0 61.557h225.793v3.283H185.905z"/><path style="opacity:.05;fill:#231815" d="M489.946 88.851v49.406h-37.178v15.602h30.923v49.406h-30.923V512H71.506v-38.583l47.508-47.508 4.779-4.709 22.56-22.56 4.146-4.146 5.904-5.904 52.99-52.99 3.303-3.303 3.092-3.092 18.484-18.413 62.618-62.619 67.397-67.467 12.018-12.018 14.829-14.829 65.008-65.008z"/></svg>